<svg fill="white" xmlns="http://www.w3.org/2000/svg" viewBox="0 0 414.76 55.54" style="enable-background:new 0 0 414.76 55.54" xml:space="preserve">
  <path d="M56.39 6.78c-1.05 0-2.2.08-3.47.22-.78.11-1.57.17-2.35.17-.9 0-1.81-.06-2.74-.17-1.57-.15-2.89-.22-3.98-.22v.84c2.65.45 3.98 2.37 3.98 5.77 0 1.87-.41 4.03-1.23 6.5l-6.94 20.66-7.46-22.62c-.49-1.38-.87-2.59-1.15-3.64-.28-1.04-.42-1.98-.42-2.8 0-2.46 1.38-3.75 4.14-3.86v-.85c-1.08 0-2.48.08-4.2.22-1.12.11-2.13.17-3.02.17s-1.81-.06-2.74-.17c-1.64-.15-3.01-.22-4.09-.22v.84c.97.19 1.9 1.18 2.8 2.97s2.2 4.98 3.92 9.58l-7.28 20.38-7.17-21.73c-.64-1.94-1.11-3.54-1.43-4.79-.32-1.25-.48-2.3-.48-3.16 0-1.12.3-1.94.9-2.46.6-.52 1.59-.78 2.97-.78v-.85c-1.08 0-2.63.08-4.65.22-1.3.12-2.42.18-3.36.18-.82 0-1.77-.06-2.86-.17-1.64-.15-3-.23-4.08-.23v.84c1.01.08 1.87.5 2.58 1.26.71.77 1.41 1.91 2.1 3.44.69 1.53 1.63 3.94 2.83 7.22l10.64 28.62h.9l9.24-25.59 9.35 25.59h.9L49.4 17.25c1.12-3.21 2.23-5.6 3.33-7.17 1.1-1.57 2.32-2.39 3.67-2.46v-.84zM76.55 41.18c-.9 1.54-1.93 2.71-3.1 3.53-1.17.82-2.57 1.22-4.2 1.22-1.22 0-2.91-.13-5.09-.38-.26-1.02-.47-2.94-.65-5.76-.18-2.82-.26-6.48-.26-10.99h3.94c1.79 0 3.21.31 4.25.94 1.04.62 1.77 1.32 2.18 2.09.42.77.82 1.71 1.2 2.83l.62-.19c-.03-.26-.17-1.13-.41-2.62-.24-1.49-.36-2.71-.36-3.67 0-1.25.13-3.09.38-5.52l-.67-.19c-.42 1.09-.83 1.98-1.25 2.66-.42.69-1.06 1.28-1.92 1.78-.86.5-2.02.74-3.46.74h-4.51c0-3.39.1-6.26.29-8.59.19-2.34.42-4.05.67-5.14l5.14-.1c1.63 0 2.97.31 4.01.94 1.04.62 1.88 1.5 2.52 2.62.64 1.12 1.28 2.62 1.92 4.51l.67-.14c-.22-3.81-.34-7.26-.34-10.37h-.67c-.03.35-.2.65-.5.89s-.76.36-1.37.36c-2.02 0-5.62.05-10.8.14l-3.36.05c-.74 0-1.52-.05-2.35-.14-1.28-.13-2.42-.19-3.41-.19v.72c.96.06 1.68.34 2.16.84.48.5.86 1.74 1.13 3.72.27 1.98.41 5.15.41 9.5v2.88c0 5.02-.14 8.69-.41 10.99-.27 2.3-.68 3.77-1.22 4.39-.54.62-1.39.95-2.54.98v.72c.99 0 2.22-.06 3.7-.19.93-.1 1.78-.14 2.54-.14l3.7.1c4.03.1 6.24.14 6.62.14 2.46 0 4.83-.11 7.1-.34 0-1.82.12-3.77.36-5.83s.52-3.96.84-5.69l-.67-.24c-.99 2.56-1.93 4.61-2.83 6.14zM101.44 29.93c-1.2-.85-2.79-1.82-4.78-2.9-1.76-.96-3.15-1.79-4.18-2.5-1.02-.7-1.88-1.54-2.57-2.52s-1.03-2.09-1.03-3.34c0-1.57.55-2.87 1.66-3.91 1.1-1.04 2.54-1.56 4.3-1.56 1.47 0 2.69.35 3.65 1.06.96.7 1.74 1.72 2.35 3.05.61 1.33 1.2 3.08 1.78 5.26l.77-.1c0-4.26.29-7.9.86-10.94l-.77-.14c-.1.42-.32.77-.67 1.06s-.83.43-1.44.43c-.77 0-1.68-.11-2.74-.34-.58-.1-1.2-.19-1.87-.29s-1.36-.15-2.06-.15c-2.08 0-3.88.39-5.4 1.18-1.52.78-2.67 1.82-3.46 3.1-.78 1.28-1.18 2.61-1.18 3.98 0 1.73.41 3.22 1.22 4.46s1.8 2.3 2.95 3.14c1.15.85 2.7 1.83 4.66 2.95 1.73.99 3.11 1.86 4.15 2.59 1.04.74 1.91 1.62 2.62 2.64.7 1.02 1.06 2.22 1.06 3.6 0 2.05-.62 3.66-1.87 4.85-1.25 1.18-2.86 1.78-4.85 1.78-1.7 0-3.14-.48-4.32-1.44-1.18-.96-2.17-2.2-2.95-3.72-.78-1.52-1.58-3.42-2.38-5.69l-.82.19c.19 2.72.29 6.4.29 11.04 1.18.22 2.73.42 4.63.6s3.42.26 4.54.26c3.84 0 6.82-.92 8.95-2.76 2.13-1.84 3.19-4.3 3.19-7.37 0-1.7-.42-3.17-1.25-4.42-.82-1.24-1.84-2.28-3.04-3.13zM126.04 41.35c-.35-2.13-.53-5.54-.53-10.25V13.25c6.02-.45 10.75-1.5 14.21-3.14 3.46-1.65 5.18-3.94 5.18-6.89 0-.77-.15-1.42-.46-1.97-.3-.54-.68-.96-1.13-1.25h-.58c-1.15 3.33-2.77 5.84-4.85 7.54-2.08 1.7-4.25 2.82-6.5 3.36-2.26.54-5.06.96-8.42 1.25-5.31.45-9.31 1.42-12 2.93-2.69 1.5-4.03 3.6-4.03 6.29 0 1.25.3 2.34.89 3.29.59.94 1.37 1.67 2.33 2.18.96.51 1.98.77 3.07.77l.29-.48c-.74-.64-1.32-1.44-1.75-2.4-.43-.96-.65-2.05-.65-3.26 0-2.3.82-4.1 2.47-5.38 1.65-1.28 4.25-2.13 7.8-2.54V31.1c0 4.67-.18 8.1-.55 10.27-.37 2.18-.89 3.57-1.56 4.18-.67.61-1.68.93-3.02.96v.72c1.02 0 2.43-.06 4.22-.19 1.15-.1 2.14-.14 2.98-.14.83 0 1.82.05 2.98.14 1.79.13 3.2.19 4.22.19v-.72c-1.38-.13-2.4-.49-3.07-1.08-.68-.59-1.19-1.95-1.54-4.08z"/>
  <path d="M158.34 41.18c-.9 1.54-1.93 2.71-3.1 3.53-1.17.82-2.57 1.22-4.2 1.22-1.22 0-2.91-.13-5.09-.38-.26-1.02-.47-2.94-.65-5.76-.18-2.82-.26-6.48-.26-10.99h3.94c1.79 0 3.21.31 4.25.94 1.04.62 1.77 1.32 2.18 2.09.42.77.82 1.71 1.2 2.83l.62-.19c-.03-.26-.17-1.13-.41-2.62-.24-1.49-.36-2.71-.36-3.67 0-1.25.13-3.09.38-5.52l-.67-.19c-.42 1.09-.83 1.98-1.25 2.66-.42.69-1.06 1.28-1.92 1.78-.86.5-2.02.74-3.46.74h-4.51c0-3.39.1-6.26.29-8.59.19-2.34.42-4.05.67-5.14l5.14-.1c1.63 0 2.97.31 4.01.94 1.04.62 1.88 1.5 2.52 2.62.64 1.12 1.28 2.62 1.92 4.51l.67-.14c-.22-3.81-.34-7.26-.34-10.37h-.67c-.03.35-.2.65-.5.89s-.76.36-1.37.36c-2.02 0-5.62.05-10.8.14l-3.36.05c-.74 0-1.52-.05-2.35-.14-1.28-.13-2.42-.19-3.41-.19v.72c.96.06 1.68.34 2.16.84.48.5.86 1.74 1.13 3.72.27 1.98.41 5.15.41 9.5v2.88c0 5.02-.14 8.69-.41 10.99-.27 2.3-.68 3.77-1.22 4.39-.54.62-1.39.95-2.54.98v.72c.99 0 2.22-.06 3.7-.19.93-.1 1.78-.14 2.54-.14l3.7.1c4.03.1 6.24.14 6.62.14 2.46 0 4.83-.11 7.1-.34 0-1.82.12-3.77.36-5.83s.52-3.96.84-5.69l-.67-.24c-.99 2.56-1.93 4.61-2.83 6.14zM192.28 46.54c-2.75-3.31-6.18-8.5-10.27-15.58 2.3-.7 4.25-1.94 5.83-3.72s2.38-3.94 2.38-6.5c0-2.72-.86-4.74-2.57-6.07s-4.09-1.99-7.13-1.99l-4.42.05c-2.05.06-3.6.1-4.66.1-.74 0-1.52-.05-2.35-.14-1.28-.13-2.42-.19-3.41-.19v.72c.96.06 1.68.34 2.16.84.48.5.86 1.74 1.13 3.72.27 1.98.41 5.15.41 9.5v2.88c0 5.02-.14 8.69-.41 10.99-.27 2.3-.68 3.77-1.22 4.39-.54.62-1.39.95-2.54.98v.72c.99 0 2.26-.06 3.79-.19.96-.1 1.84-.14 2.64-.14 1.06 0 2.45.06 4.18.19 1.15.1 2.18.14 3.07.14v-.72c-1.54-.1-2.7-.54-3.48-1.32-.78-.78-1.33-2-1.63-3.65-.3-1.65-.46-3.99-.46-7.03V31.2c.48.1 1.26.18 2.35.26 1.09.08 1.97.12 2.64.12h.43c3.39 7.39 6.24 12.83 8.54 16.32 2.3 3.49 4.16 5.63 5.57 6.43 1.41.8 2.94 1.2 4.61 1.2 1.31 0 2.98-.21 4.99-.62.74-.19 1.36-.32 1.87-.38v-.72c-1.98 0-3.8-.38-5.45-1.15-1.64-.77-3.84-2.81-6.59-6.12zm-14.06-16.01c-1.7 0-3.33-.27-4.9-.82v-1.2c0-5.86.29-10.72.86-14.59.74-.13 2.21-.19 4.42-.19 2.3 0 4.03.62 5.18 1.87 1.15 1.25 1.73 3.15 1.73 5.71 0 2.08-.35 3.82-1.06 5.21-.7 1.39-1.61 2.41-2.71 3.05-1.1.64-2.28.96-3.52.96z"/>
  <path d="M219.78 13.8c-2.5-1.36-5.38-2.04-8.64-2.04-3.33 0-6.24.73-8.74 2.18-2.5 1.46-4.42 3.54-5.78 6.26-1.36 2.72-2.04 5.92-2.04 9.6 0 3.9.7 7.22 2.09 9.94 1.39 2.72 3.34 4.77 5.83 6.14s5.38 2.06 8.64 2.06c3.33 0 6.25-.74 8.76-2.21s4.45-3.6 5.81-6.38c1.36-2.78 2.04-6.1 2.04-9.94 0-3.74-.7-6.94-2.11-9.6-1.41-2.64-3.36-4.65-5.86-6.01zm-.45 28.49c-2.16 2.91-5.05 4.37-8.66 4.37-2.18 0-4.1-.67-5.76-2.02-1.66-1.34-2.94-3.26-3.84-5.74-.9-2.48-1.34-5.35-1.34-8.62 0-3.97.52-7.25 1.56-9.84s2.43-4.49 4.18-5.69c1.74-1.2 3.72-1.8 5.93-1.8 2.14 0 4.06.58 5.74 1.75 1.68 1.17 3.01 2.95 3.98 5.35.98 2.4 1.46 5.36 1.46 8.88-.01 6-1.09 10.45-3.25 13.36zM249.14 29.93c-1.2-.85-2.79-1.82-4.78-2.9-1.76-.96-3.15-1.79-4.18-2.5-1.02-.7-1.88-1.54-2.57-2.52s-1.03-2.09-1.03-3.34c0-1.57.55-2.87 1.66-3.91 1.1-1.04 2.54-1.56 4.3-1.56 1.47 0 2.69.35 3.65 1.06.96.7 1.74 1.72 2.35 3.05.61 1.33 1.2 3.08 1.78 5.26l.77-.1c0-4.26.29-7.9.86-10.94l-.77-.14c-.1.42-.32.77-.67 1.06-.35.29-.83.43-1.44.43-.77 0-1.68-.11-2.74-.34-.58-.1-1.2-.19-1.87-.29-.67-.1-1.36-.14-2.06-.14-2.08 0-3.88.39-5.4 1.18-1.52.78-2.67 1.82-3.46 3.1-.78 1.28-1.18 2.61-1.18 3.98 0 1.73.41 3.22 1.22 4.46s1.8 2.3 2.95 3.14c1.15.85 2.7 1.83 4.66 2.95 1.73.99 3.11 1.86 4.15 2.59 1.04.74 1.91 1.62 2.62 2.64.7 1.02 1.06 2.22 1.06 3.6 0 2.05-.62 3.66-1.87 4.85-1.25 1.18-2.86 1.78-4.85 1.78-1.7 0-3.14-.48-4.32-1.44-1.18-.96-2.17-2.2-2.95-3.72-.78-1.52-1.58-3.42-2.38-5.69l-.82.19c.19 2.72.29 6.4.29 11.04 1.18.22 2.73.42 4.63.6s3.42.26 4.54.26c3.84 0 6.82-.92 8.95-2.76 2.13-1.84 3.19-4.3 3.19-7.37 0-1.7-.42-3.17-1.25-4.42s-1.84-2.29-3.04-3.14zM287.03 41.67c-1.05 1.79-2.26 3.11-3.64 3.95-1.38.84-3.14 1.26-5.26 1.26-2.54 0-4.9-.75-7.08-2.24-2.18-1.49-3.95-3.78-5.29-6.86-1.34-3.08-2.02-6.86-2.02-11.34 0-5.86 1.11-10.54 3.33-14.03 2.22-3.49 5.67-5.24 10.33-5.24 3.14 0 5.67 1.05 7.59 3.14s3.59 5.08 5.01 8.96l.9-.17c-.22-2.87-.34-5.95-.34-9.24l.06-4.37h-.84c-.04.49-.22.91-.56 1.26-.34.35-.86.53-1.57.53-.78 0-1.92-.17-3.42-.5-1.16-.26-2.25-.47-3.28-.62-1.03-.15-2.23-.22-3.61-.22-3.7 0-7.04.78-10.02 2.35-2.99 1.57-5.35 3.93-7.08 7.08-1.74 3.16-2.6 7.03-2.6 11.62 0 4.37.8 8.15 2.41 11.34s3.88 5.63 6.83 7.31c2.95 1.68 6.42 2.52 10.42 2.52 3.17 0 5.83-.21 7.98-.62 2.15-.41 3.76-.84 4.84-1.29 0-2.16.12-4.32.36-6.47.24-2.15.53-4.02.87-5.63l-.84-.22c-1.28 3.37-2.43 5.95-3.48 7.74zM323.37 46.54c-2.75-3.31-6.18-8.5-10.27-15.58 2.3-.7 4.25-1.94 5.83-3.72s2.38-3.94 2.38-6.5c0-2.72-.86-4.74-2.57-6.07s-4.09-1.99-7.13-1.99l-4.42.05c-2.05.06-3.6.1-4.66.1-.74 0-1.52-.05-2.35-.14-1.28-.13-2.42-.19-3.41-.19v.72c.96.06 1.68.34 2.16.84.48.5.86 1.74 1.13 3.72.27 1.98.41 5.15.41 9.5v2.88c0 5.02-.14 8.69-.41 10.99-.27 2.3-.68 3.77-1.22 4.39-.54.62-1.39.95-2.54.98v.72c.99 0 2.26-.06 3.79-.19.96-.1 1.84-.14 2.64-.14 1.06 0 2.45.06 4.18.19 1.15.1 2.18.14 3.07.14v-.72c-1.54-.1-2.7-.54-3.48-1.32-.79-.78-1.33-2-1.63-3.65-.3-1.65-.46-3.99-.46-7.03V31.2c.48.1 1.26.18 2.35.26 1.09.08 1.97.12 2.64.12h.43c3.39 7.39 6.24 12.83 8.54 16.32 2.3 3.49 4.16 5.63 5.57 6.43 1.41.8 2.94 1.2 4.61 1.2 1.31 0 2.98-.21 4.99-.62.74-.19 1.36-.32 1.87-.38v-.72c-1.98 0-3.8-.38-5.45-1.15-1.63-.77-3.83-2.81-6.59-6.12zm-14.06-16.01c-1.7 0-3.33-.27-4.9-.82v-1.2c0-5.86.29-10.72.86-14.59.74-.13 2.21-.19 4.42-.19 2.3 0 4.03.62 5.18 1.87 1.15 1.25 1.73 3.15 1.73 5.71 0 2.08-.35 3.82-1.06 5.21-.7 1.39-1.61 2.41-2.71 3.05-1.1.64-2.27.96-3.52.96z"/>
  <path d="M352.58 42.14c-.56-1.31-1.29-3.26-2.18-5.86l-8.26-23.76-.34-.19c-.35.13-.82.19-1.39.19-.48 0-1.33-.1-2.54-.29-.19-.03-.65-.1-1.37-.19-.72-.1-1.4-.14-2.04-.14-1.86 0-3.46.36-4.8 1.08-1.34.72-2.36 1.65-3.05 2.78-.69 1.14-1.03 2.31-1.03 3.53 0 1.47.52 2.72 1.56 3.74s2.52 1.54 4.44 1.54l.24-.38c-.9-.8-1.56-1.7-1.99-2.69-.43-.99-.65-1.98-.65-2.98 0-1.57.49-2.9 1.46-4.01.98-1.1 2.26-1.66 3.86-1.66 1.25 0 2.22.44 2.9 1.32.69.88 1.03 1.99 1.03 3.34 0 1.18-.22 2.29-.67 3.31l-7.3 17.42c-.93 2.21-1.66 3.85-2.21 4.92-.54 1.07-1.1 1.89-1.68 2.45-.58.56-1.26.86-2.06.89v.72c.61 0 1.36-.06 2.26-.19.19 0 .5-.02.94-.07.43-.05.84-.07 1.22-.07s.79.02 1.22.05c.43.03.76.06.98.1 1.02.13 1.92.19 2.69.19v-.72c-.99-.13-1.7-.45-2.11-.96-.42-.51-.62-1.22-.62-2.11v-.14c.03-.9.23-1.95.6-3.17s.95-2.88 1.75-4.99c.1-.19.21-.33.34-.41.13-.08.32-.12.58-.12h10.75l.91 3.07c.74 2.5 1.1 4.37 1.1 5.62 0 1.12-.25 1.93-.74 2.42-.5.5-1.22.76-2.18.79v.72c1.02 0 2.3-.06 3.84-.19.96-.1 1.86-.14 2.69-.14.8 0 1.65.05 2.54.14 1.47.13 2.7.19 3.7.19v-.72c-.99-.1-1.83-.52-2.52-1.27-.68-.75-1.31-1.78-1.87-3.1zm-16.44-8.68-1.63.05c-.22 0-.3-.1-.24-.29l6-14.54 4.37 14.54c-3.49.06-6.32.14-8.5.24zM380.92 11.38c-.03.35-.2.65-.5.89s-.76.36-1.37.36c-1.95 0-5.66.05-11.14.14l-3.5.05c-.74 0-1.52-.05-2.35-.14-1.28-.13-2.42-.19-3.41-.19v.72c.96.06 1.68.34 2.16.84.48.5.86 1.74 1.13 3.72.27 1.98.41 5.15.41 9.5v2.88c0 5.02-.14 8.69-.41 10.99-.27 2.3-.68 3.77-1.22 4.39-.54.62-1.39.95-2.54.98v.72c.99 0 2.22-.06 3.7-.19.93-.1 1.78-.14 2.54-.14.86 0 1.89.05 3.07.14 1.92.13 3.38.19 4.37.19v-.72c-1.5-.19-2.62-.58-3.34-1.18-.72-.59-1.27-1.88-1.66-3.86-.38-1.98-.58-5.1-.58-9.36V28.8h4.22c1.82 0 3.26.38 4.32 1.15 1.06.77 1.82 1.69 2.28 2.76.46 1.07.9 2.46 1.32 4.15l.72-.1c-.67-4.54-1.01-7.41-1.01-8.59 0-1.25.13-2.93.38-5.04l-.67-.19c-.38.99-.8 1.81-1.25 2.45-.45.64-1.12 1.18-2.02 1.61-.9.43-2.06.65-3.5.65h-4.8c.13-6.82.43-11.39.91-13.73l5.62-.1c1.63 0 2.97.31 4.01.94s1.88 1.5 2.52 2.62c.64 1.12 1.28 2.62 1.92 4.51l.67-.14c-.22-3.81-.34-7.26-.34-10.37h-.66zM414 11.38c-.06.35-.27.65-.62.89s-.83.36-1.44.36c-3.2 0-6.05.05-8.54.14l-3.79.05-3.31-.05c-4.8-.1-7.82-.14-9.07-.14-.61 0-1.06-.12-1.37-.36-.3-.24-.47-.54-.5-.89h-.67c0 3.1-.11 6.08-.34 8.93l.77.14c.54-1.66 1.18-2.94 1.92-3.84.74-.9 1.59-1.51 2.57-1.85.98-.34 2.2-.5 3.67-.5h4.08V31.1c0 4.67-.18 8.1-.55 10.27-.37 2.18-.89 3.57-1.56 4.18-.67.61-1.68.93-3.02.96v.72c1.02 0 2.43-.06 4.22-.19 1.15-.1 2.14-.14 2.98-.14.83 0 1.82.05 2.98.14 1.79.13 3.2.19 4.22.19v-.72c-1.38-.13-2.4-.49-3.07-1.08-.67-.59-1.18-1.95-1.54-4.08-.35-2.13-.53-5.54-.53-10.25V14.26h4.42c2.05 0 3.59.5 4.63 1.49s1.9 2.72 2.57 5.18l.77-.14c.16-3.46.46-6.54.91-9.26l-.79-.15z"/>
</svg>